<?xml version="1.0" standalone="no"?>
<!DOCTYPE svg PUBLIC "-//W3C//DTD SVG 20010904//EN"
 "http://www.w3.org/TR/2001/REC-SVG-20010904/DTD/svg10.dtd">
<svg version="1.0" xmlns="http://www.w3.org/2000/svg"
 width="408.000000pt" height="398.000000pt" viewBox="0 0 408.000000 398.000000"
 preserveAspectRatio="xMidYMid meet">

<g transform="translate(0.000000,398.000000) scale(0.100000,-0.100000)"
fill="#000000" stroke="none">
<path d="M812 3652 c-17 -11 -57 -192 -71 -320 -14 -127 -14 -344 -1 -436 12
-80 56 -232 76 -261 8 -11 14 -28 14 -37 0 -10 -55 -80 -123 -156 -164 -183
-227 -260 -227 -277 0 -32 30 -45 106 -45 41 0 74 -4 74 -9 0 -4 -17 -46 -39
-92 -21 -46 -51 -115 -66 -153 l-27 -68 20 -20 c20 -20 22 -20 128 -5 60 9
110 14 113 12 2 -3 -15 -46 -38 -96 -24 -50 -48 -117 -54 -150 -15 -83 -6 -90
123 -100 119 -9 140 -13 241 -44 112 -35 188 -74 241 -125 48 -47 51 -53 82
-205 64 -305 108 -474 146 -563 59 -136 277 -242 500 -243 157 0 331 59 427
146 68 60 98 133 153 368 10 42 21 85 25 95 3 9 15 62 25 117 37 194 49 235
76 268 60 72 173 139 319 189 73 25 219 58 256 58 71 0 74 70 8 203 -22 44
-38 82 -36 84 2 2 55 -3 118 -12 63 -8 122 -15 131 -15 28 0 50 30 43 58 -9
37 -76 168 -118 231 -20 30 -34 58 -31 63 3 4 32 8 64 8 90 0 112 32 63 92
-56 68 -291 334 -307 347 -20 17 -21 50 -2 77 20 29 64 178 76 259 22 159 7
444 -35 645 -19 92 -38 124 -70 118 -11 -3 -156 -95 -322 -206 l-301 -202 -65
20 c-114 35 -299 69 -417 76 -180 10 -345 -11 -558 -72 l-83 -23 -302 201
c-166 111 -311 203 -322 205 -11 2 -26 0 -33 -5z m100 -204 c104 -128 242
-362 284 -481 15 -43 40 -77 57 -77 16 0 47 31 47 47 0 42 -82 217 -167 357
-30 49 -52 91 -49 93 2 3 87 -50 188 -117 104 -68 190 -119 198 -116 192 64
437 107 580 102 98 -4 238 -20 300 -36 19 -5 64 -16 100 -25 36 -9 84 -23 108
-31 24 -8 49 -11 55 -7 7 3 90 58 185 121 95 63 175 112 178 109 3 -2 -19 -44
-49 -93 -85 -140 -167 -315 -167 -357 0 -21 37 -50 55 -44 18 7 55 65 55 87 0
22 94 204 147 284 65 100 162 226 173 226 21 0 50 -223 50 -389 0 -179 -27
-323 -81 -438 -21 -45 -39 -85 -39 -89 0 -8 36 -50 131 -154 108 -119 168
-193 163 -202 -3 -5 -29 -8 -58 -8 -92 0 -98 -29 -27 -134 94 -138 130 -225
88 -211 -29 10 -256 35 -270 29 -33 -12 -30 -44 11 -102 52 -75 92 -155 92
-185 0 -22 -6 -25 -49 -31 -69 -9 -253 -70 -333 -111 -175 -89 -254 -184 -273
-325 -11 -89 -85 -408 -124 -536 -12 -39 -36 -87 -52 -107 -97 -118 -347 -177
-537 -128 -170 44 -255 112 -292 233 -46 151 -85 318 -119 509 -24 129 -44
172 -113 233 -81 74 -181 119 -354 161 -56 14 -116 25 -134 25 -17 0 -40 5
-50 10 -20 11 -17 32 16 107 8 17 14 34 14 37 0 4 21 43 46 86 70 123 56 139
-102 115 -54 -8 -105 -15 -113 -15 -18 0 -11 26 34 130 85 196 85 202 -9 210
-31 3 -56 10 -56 15 1 13 61 87 153 189 40 44 87 96 104 115 18 20 33 39 33
44 0 4 -18 45 -39 90 -76 161 -102 429 -66 678 25 174 24 172 77 107z"/>
<path d="M1478 2306 c-34 -25 -12 -82 28 -74 28 5 40 33 26 62 -13 29 -28 32
-54 12z"/>
<path d="M2537 2305 c-38 -28 1 -94 41 -69 24 16 27 42 6 65 -20 22 -23 23
-47 4z"/>
<path d="M1272 2281 c-8 -5 -12 -21 -10 -37 2 -23 9 -30 30 -32 22 -3 30 2 39
22 19 41 -20 72 -59 47z"/>
<path d="M2728 2265 c-9 -21 -9 -29 4 -42 22 -21 64 -10 71 19 13 49 -54 69
-75 23z"/>
<path d="M1676 2257 c-38 -27 2 -95 42 -71 24 16 28 55 6 71 -10 7 -21 13 -24
13 -3 0 -14 -6 -24 -13z"/>
<path d="M2337 2255 c-38 -28 1 -94 41 -69 24 16 28 55 6 71 -22 16 -24 16
-47 -2z"/>
<path d="M2928 2199 c-24 -14 -22 -45 4 -63 39 -28 84 20 52 55 -19 21 -31 23
-56 8z"/>
<path d="M1082 2188 c-30 -30 0 -75 43 -64 41 11 29 76 -15 76 -9 0 -21 -5
-28 -12z"/>
<path d="M1836 2124 c-19 -19 -20 -33 -2 -56 24 -32 66 -15 66 27 0 41 -36 58
-64 29z"/>
<path d="M2178 2129 c-22 -12 -23 -52 -3 -69 23 -19 65 2 65 33 0 40 -28 56
-62 36z"/>
<path d="M940 2040 c-25 -25 -25 -32 -1 -54 40 -36 91 15 55 55 -22 24 -29 24
-54 -1z"/>
<path d="M3067 2053 c-12 -12 -7 -50 8 -63 35 -29 85 26 53 58 -13 13 -50 16
-61 5z"/>
<path d="M1948 1956 c-22 -17 -23 -50 -2 -71 14 -14 19 -14 38 -2 28 19 32 44
10 68 -20 22 -23 23 -46 5z"/>
<path d="M2058 1935 c-9 -20 -8 -28 6 -44 15 -16 22 -18 42 -9 40 19 26 78
-18 78 -10 0 -24 -11 -30 -25z"/>
<path d="M1499 1769 c35 -88 98 -192 170 -279 25 -30 46 -57 48 -59 8 -11 13
12 24 100 19 161 -2 194 -146 234 -110 31 -107 30 -96 4z"/>
<path d="M2450 1761 c-41 -15 -85 -33 -98 -41 -36 -24 -45 -79 -33 -189 7 -52
13 -97 16 -99 7 -7 65 62 120 143 46 69 68 108 107 198 10 24 -19 21 -112 -12z"/>
<path d="M2003 1754 c-18 -8 -16 -49 2 -64 12 -10 21 -10 41 -1 35 16 31 65
-6 68 -14 1 -31 -1 -37 -3z"/>
<path d="M1955 774 c-63 -9 -181 -37 -207 -50 l-27 -14 15 -52 c25 -86 63
-136 129 -171 35 -19 56 -22 165 -22 135 0 164 8 223 64 35 32 50 60 70 129
l16 52 -27 14 c-22 11 -76 25 -162 42 -32 7 -166 12 -195 8z"/>
</g>
</svg>
